<svg width="2265" height="1118" viewBox="0 0 2265 1118" fill="none" xmlns="http://www.w3.org/2000/svg">
<path d="M137.174 553C157.007 553 174.257 555.25 188.924 559.75C203.757 564.083 215.507 568.75 224.174 573.75C233.007 578.75 238.341 582 240.174 583.5L209.674 634.25C207.007 632.083 202.424 629.083 195.924 625.25C189.591 621.25 181.924 617.75 172.924 614.75C163.924 611.583 154.174 610 143.674 610C128.507 610 116.34 612.917 107.174 618.75C98.1738 624.417 93.6738 632.667 93.6738 643.5C93.6738 650.833 96.0905 657.417 100.924 663.25C105.757 668.917 112.84 674.25 122.174 679.25C131.674 684.25 143.257 689.5 156.924 695C168.924 699.667 180.341 705.083 191.174 711.25C202.174 717.417 211.924 724.667 220.424 733C229.091 741.333 235.924 751 240.924 762C246.091 773 248.674 785.583 248.674 799.75C248.674 815.583 245.424 829.417 238.924 841.25C232.591 853.083 223.757 863 212.424 871C201.257 879 188.424 885 173.924 889C159.424 893 144.174 895 128.174 895C106.507 895 87.0072 892.5 69.6738 887.5C52.5072 882.333 38.5905 876.833 27.9238 871C17.2572 865.167 11.0072 861.417 9.17383 859.75L41.1738 807C43.1738 808.5 46.9238 810.917 52.4238 814.25C58.0905 817.583 64.9238 821 72.9238 824.5C81.0905 828 89.9238 831 99.4238 833.5C109.09 836 118.924 837.25 128.924 837.25C146.924 837.25 160.507 833.5 169.674 826C178.841 818.5 183.424 808.75 183.424 796.75C183.424 787.75 180.507 779.833 174.674 773C168.841 766.167 160.591 759.917 149.924 754.25C139.424 748.417 126.84 742.5 112.174 736.5C97.5072 730.333 83.8405 723.167 71.1738 715C58.6738 706.667 48.5905 696.5 40.9238 684.5C33.2572 672.333 29.4238 657.417 29.4238 639.75C29.4238 622.25 34.3405 607 44.1738 594C54.1738 581 67.3405 570.917 83.6738 563.75C100.174 556.583 118.007 553 137.174 553ZM344.35 800.5C344.85 809.833 347.35 818.167 351.85 825.5C356.35 832.833 362.85 838.583 371.35 842.75C380.016 846.917 390.35 849 402.35 849C413.183 849 422.683 847.667 430.85 845C439.183 842.333 446.183 839.083 451.85 835.25C457.683 831.25 462.016 827.417 464.85 823.75L491.1 862.75C486.433 868.583 480.183 874 472.35 879C464.683 883.833 454.85 887.667 442.85 890.5C431.016 893.5 416.183 895 398.35 895C375.85 895 356.1 890.583 339.1 881.75C322.1 872.917 308.85 860.167 299.35 843.5C289.85 826.833 285.1 807 285.1 784C285.1 764 289.35 746 297.85 730C306.35 713.833 318.683 701.083 334.85 691.75C351.183 682.417 370.766 677.75 393.6 677.75C415.1 677.75 433.683 681.917 449.35 690.25C465.183 698.417 477.433 710.417 486.1 726.25C494.766 742.083 499.1 761.417 499.1 784.25C499.1 785.583 499.016 788.333 498.85 792.5C498.85 796.5 498.683 799.167 498.35 800.5H344.35ZM439.6 761.25C439.433 755.917 437.766 750.167 434.6 744C431.6 737.833 426.85 732.583 420.35 728.25C413.85 723.917 405.183 721.75 394.35 721.75C383.516 721.75 374.6 723.833 367.6 728C360.766 732.167 355.6 737.333 352.1 743.5C348.6 749.5 346.6 755.417 346.1 761.25H439.6ZM524.229 683.75H561.229V599.5H624.229V683.75H672.729V736.5H624.229V810.75C624.229 820.583 625.812 828.25 628.979 833.75C632.145 839.083 637.145 841.75 643.979 841.75C649.145 841.75 653.395 840.75 656.729 838.75C660.062 836.583 662.062 835.083 662.729 834.25L685.229 879.75C684.229 880.75 680.979 882.5 675.479 885C670.145 887.5 663.229 889.75 654.729 891.75C646.395 893.917 636.979 895 626.479 895C607.645 895 592.062 889.583 579.729 878.75C567.395 867.75 561.229 850.75 561.229 827.75V736.5H524.229V683.75ZM697.08 683.75H734.08V599.5H797.08V683.75H845.58V736.5H797.08V810.75C797.08 820.583 798.663 828.25 801.83 833.75C804.997 839.083 809.997 841.75 816.83 841.75C821.997 841.75 826.247 840.75 829.58 838.75C832.913 836.583 834.913 835.083 835.58 834.25L858.08 879.75C857.08 880.75 853.83 882.5 848.33 885C842.997 887.5 836.08 889.75 827.58 891.75C819.247 893.917 809.83 895 799.33 895C780.497 895 764.913 889.583 752.58 878.75C740.247 867.75 734.08 850.75 734.08 827.75V736.5H697.08V683.75ZM954.123 889H890.373V545H954.123V889ZM1055.29 800.5C1055.79 809.833 1058.29 818.167 1062.79 825.5C1067.29 832.833 1073.79 838.583 1082.29 842.75C1090.95 846.917 1101.29 849 1113.29 849C1124.12 849 1133.62 847.667 1141.79 845C1150.12 842.333 1157.12 839.083 1162.79 835.25C1168.62 831.25 1172.95 827.417 1175.79 823.75L1202.04 862.75C1197.37 868.583 1191.12 874 1183.29 879C1175.62 883.833 1165.79 887.667 1153.79 890.5C1141.95 893.5 1127.12 895 1109.29 895C1086.79 895 1067.04 890.583 1050.04 881.75C1033.04 872.917 1019.79 860.167 1010.29 843.5C1000.79 826.833 996.037 807 996.037 784C996.037 764 1000.29 746 1008.79 730C1017.29 713.833 1029.62 701.083 1045.79 691.75C1062.12 682.417 1081.7 677.75 1104.54 677.75C1126.04 677.75 1144.62 681.917 1160.29 690.25C1176.12 698.417 1188.37 710.417 1197.04 726.25C1205.7 742.083 1210.04 761.417 1210.04 784.25C1210.04 785.583 1209.95 788.333 1209.79 792.5C1209.79 796.5 1209.62 799.167 1209.29 800.5H1055.29ZM1150.54 761.25C1150.37 755.917 1148.7 750.167 1145.54 744C1142.54 737.833 1137.79 732.583 1131.29 728.25C1124.79 723.917 1116.12 721.75 1105.29 721.75C1094.45 721.75 1085.54 723.833 1078.54 728C1071.7 732.167 1066.54 737.333 1063.04 743.5C1059.54 749.5 1057.54 755.417 1057.04 761.25H1150.54Z" fill="#11457E"/>
<path d="M1584.17 559V889H1521.92V677.75L1524.92 629.75L1513.67 684.25L1448.92 865.5H1387.42L1322.92 684.25L1311.92 629.75L1314.67 677.75V889H1252.17V559H1338.67L1414.17 794.25L1418.17 816.75L1422.17 794.25L1497.92 559H1584.17ZM1694.45 800.5C1694.95 809.833 1697.45 818.167 1701.95 825.5C1706.45 832.833 1712.95 838.583 1721.45 842.75C1730.11 846.917 1740.45 849 1752.45 849C1763.28 849 1772.78 847.667 1780.95 845C1789.28 842.333 1796.28 839.083 1801.95 835.25C1807.78 831.25 1812.11 827.417 1814.95 823.75L1841.2 862.75C1836.53 868.583 1830.28 874 1822.45 879C1814.78 883.833 1804.95 887.667 1792.95 890.5C1781.11 893.5 1766.28 895 1748.45 895C1725.95 895 1706.2 890.583 1689.2 881.75C1672.2 872.917 1658.95 860.167 1649.45 843.5C1639.95 826.833 1635.2 807 1635.2 784C1635.2 764 1639.45 746 1647.95 730C1656.45 713.833 1668.78 701.083 1684.95 691.75C1701.28 682.417 1720.86 677.75 1743.7 677.75C1765.2 677.75 1783.78 681.917 1799.45 690.25C1815.28 698.417 1827.53 710.417 1836.2 726.25C1844.86 742.083 1849.2 761.417 1849.2 784.25C1849.2 785.583 1849.11 788.333 1848.95 792.5C1848.95 796.5 1848.78 799.167 1848.45 800.5H1694.45ZM1789.7 761.25C1789.53 755.917 1787.86 750.167 1784.7 744C1781.7 737.833 1776.95 732.583 1770.45 728.25C1763.95 723.917 1755.28 721.75 1744.45 721.75C1733.61 721.75 1724.7 723.833 1717.7 728C1710.86 732.167 1705.7 737.333 1702.2 743.5C1698.7 749.5 1696.7 755.417 1696.2 761.25H1789.7Z" fill="#D7141A"/>
<path d="M1069.58 933L1057.38 1002H1050.38L1060.08 947L1025.88 1002H1020.78L1005.78 947.1L996.178 1002H989.178L1001.38 933H1008.78L1025.08 992.8L1062.18 933H1069.58ZM1097.36 1002.8C1092.82 1002.8 1088.82 1001.9 1085.36 1000.1C1081.89 998.233 1079.19 995.633 1077.26 992.3C1075.39 988.9 1074.46 984.933 1074.46 980.4C1074.46 974.267 1075.86 968.633 1078.66 963.5C1081.46 958.3 1085.36 954.2 1090.36 951.2C1095.36 948.133 1100.92 946.6 1107.06 946.6C1111.59 946.6 1115.59 947.533 1119.06 949.4C1122.52 951.2 1125.22 953.8 1127.16 957.2C1129.09 960.533 1130.06 964.467 1130.06 969C1130.06 975.2 1128.62 980.867 1125.76 986C1122.89 991.133 1118.96 995.233 1113.96 998.3C1109.02 1001.3 1103.49 1002.8 1097.36 1002.8ZM1098.16 996.9C1102.89 996.9 1107.12 995.633 1110.86 993.1C1114.66 990.567 1117.59 987.2 1119.66 983C1121.79 978.8 1122.86 974.267 1122.86 969.4C1122.86 963.933 1121.26 959.767 1118.06 956.9C1114.92 954.033 1110.92 952.6 1106.06 952.6C1101.32 952.6 1097.09 953.867 1093.36 956.4C1089.69 958.933 1086.82 962.3 1084.76 966.5C1082.69 970.7 1081.66 975.233 1081.66 980.1C1081.66 985.5 1083.22 989.667 1086.36 992.6C1089.49 995.467 1093.42 996.9 1098.16 996.9ZM1158.22 994.9L1184.92 947.4H1192.52L1160.92 1002H1152.82L1140.62 947.4H1148.12L1158.22 994.9ZM1225.61 946.6C1230.21 946.6 1234.14 947.5 1237.41 949.3C1240.67 951.033 1243.14 953.433 1244.81 956.5C1246.54 959.567 1247.41 963.067 1247.41 967C1247.41 968.8 1247.27 970.4 1247.01 971.8C1246.61 973.8 1246.21 975.6 1245.81 977.2H1200.51C1200.31 978.467 1200.21 979.667 1200.21 980.8C1200.21 985.933 1201.74 989.9 1204.81 992.7C1207.94 995.5 1211.91 996.9 1216.71 996.9C1221.31 996.9 1225.34 995.8 1228.81 993.6C1232.27 991.4 1234.81 988.433 1236.41 984.7H1243.91C1241.64 990.033 1238.01 994.4 1233.01 997.8C1228.07 1001.13 1222.31 1002.8 1215.71 1002.8C1208.91 1002.8 1203.44 1000.87 1199.31 997C1195.24 993.067 1193.21 987.733 1193.21 981C1193.21 979 1193.41 976.9 1193.81 974.7C1194.81 969.033 1196.81 964.067 1199.81 959.8C1202.87 955.533 1206.64 952.267 1211.11 950C1215.57 947.733 1220.41 946.6 1225.61 946.6ZM1239.81 972C1240.14 970.133 1240.31 968.567 1240.31 967.3C1240.31 962.567 1238.81 958.933 1235.81 956.4C1232.81 953.867 1228.97 952.6 1224.31 952.6C1220.91 952.6 1217.64 953.333 1214.51 954.8C1211.37 956.267 1208.64 958.467 1206.31 961.4C1203.97 964.333 1202.37 967.867 1201.51 972H1239.81ZM1286.9 967C1288.1 960.133 1290.67 954 1294.6 948.6C1298.54 943.133 1303.37 938.9 1309.1 935.9C1314.9 932.833 1321 931.3 1327.4 931.3C1335.14 931.3 1341.47 933.167 1346.4 936.9C1351.4 940.567 1354.57 945.767 1355.9 952.5H1347.7C1346.5 947.833 1344.07 944.2 1340.4 941.6C1336.8 938.933 1332.1 937.6 1326.3 937.6C1321.17 937.6 1316.34 938.8 1311.8 941.2C1307.34 943.6 1303.54 947.033 1300.4 951.5C1297.27 955.967 1295.17 961.133 1294.1 967C1293.7 969.267 1293.5 971.467 1293.5 973.6C1293.5 978.2 1294.44 982.233 1296.3 985.7C1298.17 989.1 1300.8 991.733 1304.2 993.6C1307.6 995.4 1311.5 996.3 1315.9 996.3C1321.7 996.3 1326.87 995 1331.4 992.4C1336 989.8 1339.7 986.2 1342.5 981.6H1350.8C1347 988.267 1341.97 993.433 1335.7 997.1C1329.5 1000.77 1322.54 1002.6 1314.8 1002.6C1309.14 1002.6 1304.14 1001.43 1299.8 999.1C1295.54 996.7 1292.2 993.367 1289.8 989.1C1287.4 984.833 1286.2 979.9 1286.2 974.3C1286.2 972.367 1286.44 969.933 1286.9 967ZM1385.05 1002.8C1380.52 1002.8 1376.52 1001.9 1373.05 1000.1C1369.59 998.233 1366.89 995.633 1364.95 992.3C1363.09 988.9 1362.15 984.933 1362.15 980.4C1362.15 974.267 1363.55 968.633 1366.35 963.5C1369.15 958.3 1373.05 954.2 1378.05 951.2C1383.05 948.133 1388.62 946.6 1394.75 946.6C1399.29 946.6 1403.29 947.533 1406.75 949.4C1410.22 951.2 1412.92 953.8 1414.85 957.2C1416.79 960.533 1417.75 964.467 1417.75 969C1417.75 975.2 1416.32 980.867 1413.45 986C1410.59 991.133 1406.65 995.233 1401.65 998.3C1396.72 1001.3 1391.19 1002.8 1385.05 1002.8ZM1385.85 996.9C1390.59 996.9 1394.82 995.633 1398.55 993.1C1402.35 990.567 1405.29 987.2 1407.35 983C1409.49 978.8 1410.55 974.267 1410.55 969.4C1410.55 963.933 1408.95 959.767 1405.75 956.9C1402.62 954.033 1398.62 952.6 1393.75 952.6C1389.02 952.6 1384.79 953.867 1381.05 956.4C1377.39 958.933 1374.52 962.3 1372.45 966.5C1370.39 970.7 1369.35 975.233 1369.35 980.1C1369.35 985.5 1370.92 989.667 1374.05 992.6C1377.19 995.467 1381.12 996.9 1385.85 996.9ZM1460.71 946.4C1466.31 946.4 1470.78 947.933 1474.11 951C1477.51 954 1479.21 958.4 1479.21 964.2C1479.21 966.333 1479.05 968.267 1478.71 970L1473.01 1002H1466.11L1471.61 970.8C1471.88 969.267 1472.01 967.633 1472.01 965.9C1472.01 961.5 1470.81 958.167 1468.41 955.9C1466.01 953.633 1462.65 952.5 1458.31 952.5C1453.05 952.5 1448.55 954.167 1444.81 957.5C1441.08 960.833 1438.65 965.733 1437.51 972.2V971.9L1432.21 1002H1425.21L1434.81 947.4H1441.81L1440.11 956.8C1442.45 953.467 1445.41 950.9 1449.01 949.1C1452.61 947.3 1456.51 946.4 1460.71 946.4ZM1521.89 932.3C1517.36 932.3 1514.03 933.167 1511.89 934.9C1509.76 936.633 1508.33 939.533 1507.59 943.6L1506.89 947.4H1519.69L1518.59 953.3H1505.89L1497.29 1002H1490.29L1498.89 953.3H1491.29L1492.39 947.4H1499.89L1500.59 943.6C1501.66 937.667 1503.96 933.3 1507.49 930.5C1511.03 927.7 1516.19 926.3 1522.99 926.3L1521.89 932.3ZM1536.01 937.1C1534.75 937.1 1533.71 936.733 1532.91 936C1532.11 935.2 1531.71 934.167 1531.71 932.9C1531.71 931.167 1532.31 929.733 1533.51 928.6C1534.71 927.4 1536.15 926.8 1537.81 926.8C1539.08 926.8 1540.08 927.167 1540.81 927.9C1541.61 928.633 1542.01 929.6 1542.01 930.8C1542.01 932.533 1541.41 934.033 1540.21 935.3C1539.01 936.5 1537.61 937.1 1536.01 937.1ZM1537.61 947.4L1528.01 1002H1521.01L1530.61 947.4H1537.61ZM1545.47 974.6C1546.47 969 1548.47 964.1 1551.47 959.9C1554.47 955.633 1558.17 952.367 1562.57 950.1C1566.97 947.767 1571.67 946.6 1576.67 946.6C1581.47 946.6 1585.57 947.767 1588.97 950.1C1592.43 952.433 1594.77 955.467 1595.97 959.2L1601.47 928H1608.47L1595.37 1002H1588.37L1590.57 989.8C1588.17 993.6 1584.87 996.733 1580.67 999.2C1576.47 1001.6 1571.8 1002.8 1566.67 1002.8C1560.07 1002.8 1554.77 1000.83 1550.77 996.9C1546.83 992.9 1544.87 987.533 1544.87 980.8C1544.87 978.867 1545.07 976.8 1545.47 974.6ZM1593.17 974.7C1593.5 972.833 1593.67 971.167 1593.67 969.7C1593.67 964.5 1592.1 960.367 1588.97 957.3C1585.83 954.233 1581.77 952.7 1576.77 952.7C1572.9 952.7 1569.27 953.567 1565.87 955.3C1562.53 957.033 1559.7 959.567 1557.37 962.9C1555.03 966.167 1553.47 970.067 1552.67 974.6C1552.33 976.6 1552.17 978.3 1552.17 979.7C1552.17 984.967 1553.7 989.133 1556.77 992.2C1559.9 995.2 1563.97 996.7 1568.97 996.7C1572.7 996.7 1576.27 995.8 1579.67 994C1583.13 992.2 1586.03 989.633 1588.37 986.3C1590.77 982.967 1592.37 979.1 1593.17 974.7ZM1644.75 946.6C1649.35 946.6 1653.28 947.5 1656.55 949.3C1659.81 951.033 1662.28 953.433 1663.95 956.5C1665.68 959.567 1666.55 963.067 1666.55 967C1666.55 968.8 1666.41 970.4 1666.15 971.8C1665.75 973.8 1665.35 975.6 1664.95 977.2H1619.65C1619.45 978.467 1619.35 979.667 1619.35 980.8C1619.35 985.933 1620.88 989.9 1623.95 992.7C1627.08 995.5 1631.05 996.9 1635.85 996.9C1640.45 996.9 1644.48 995.8 1647.95 993.6C1651.41 991.4 1653.95 988.433 1655.55 984.7H1663.05C1660.78 990.033 1657.15 994.4 1652.15 997.8C1647.21 1001.13 1641.45 1002.8 1634.85 1002.8C1628.05 1002.8 1622.58 1000.87 1618.45 997C1614.38 993.067 1612.35 987.733 1612.35 981C1612.35 979 1612.55 976.9 1612.95 974.7C1613.95 969.033 1615.95 964.067 1618.95 959.8C1622.01 955.533 1625.78 952.267 1630.25 950C1634.71 947.733 1639.55 946.6 1644.75 946.6ZM1658.95 972C1659.28 970.133 1659.45 968.567 1659.45 967.3C1659.45 962.567 1657.95 958.933 1654.95 956.4C1651.95 953.867 1648.11 952.6 1643.45 952.6C1640.05 952.6 1636.78 953.333 1633.65 954.8C1630.51 956.267 1627.78 958.467 1625.45 961.4C1623.11 964.333 1621.51 967.867 1620.65 972H1658.95ZM1709.05 946.4C1714.65 946.4 1719.12 947.933 1722.45 951C1725.85 954 1727.55 958.4 1727.55 964.2C1727.55 966.333 1727.39 968.267 1727.05 970L1721.35 1002H1714.45L1719.95 970.8C1720.22 969.267 1720.35 967.633 1720.35 965.9C1720.35 961.5 1719.15 958.167 1716.75 955.9C1714.35 953.633 1710.99 952.5 1706.65 952.5C1701.39 952.5 1696.89 954.167 1693.15 957.5C1689.42 960.833 1686.99 965.733 1685.85 972.2V971.9L1680.55 1002H1673.55L1683.15 947.4H1690.15L1688.45 956.8C1690.79 953.467 1693.75 950.9 1697.35 949.1C1700.95 947.3 1704.85 946.4 1709.05 946.4ZM1748.43 987.2C1748.23 988.4 1748.13 989.433 1748.13 990.3C1748.13 992.433 1748.7 993.933 1749.83 994.8C1751.03 995.6 1752.97 996 1755.63 996H1762.03L1760.93 1002H1753.43C1749.3 1002 1746.2 1001.2 1744.13 999.6C1742.07 998 1741.03 995.367 1741.03 991.7C1741.03 990.233 1741.17 988.733 1741.43 987.2L1747.43 953.3H1739.83L1740.93 947.4H1748.53L1750.93 933.7H1757.93L1755.53 947.4H1770.63L1769.53 953.3H1754.43L1748.43 987.2ZM1792.58 928L1779.48 1002H1772.48L1785.58 928H1792.58ZM1806.23 947.4L1816.53 993.7L1842.63 947.4H1849.93L1803.43 1027.7H1796.03L1811.23 1001.6L1798.43 947.4H1806.23Z" fill="#0F263B"/>
<path d="M1593.66 143.857C1600.9 146.481 1607.83 151.219 1614.3 155.385C1671.93 192.484 1814.55 330.228 1828.89 396.731C1826.42 403.746 1821.9 409.981 1817.88 416.202C1810.18 428.137 1802.89 439.984 1798.78 453.714C1793.19 472.423 1795.57 485.169 1804.71 502.01C1808.97 484.21 1813.04 466.191 1821.64 449.862C1838.06 418.706 1870.78 393.021 1898.15 371.708C1921.98 353.154 1947.86 336.419 1973.22 320.031C2011.37 295.013 2050.35 271.274 2090.08 248.853C2132.72 224.55 2175.64 198.373 2222.74 183.62L2222.63 184.023C2215.2 210.255 2199.22 234.796 2180.34 254.34C2174.27 260.63 2166.65 266.095 2161.5 273.154C2155.91 280.804 2155.94 290.097 2148.47 296.816C2134.08 309.751 2113.12 318.468 2096.24 328.004C2105.07 326.388 2113.59 325.952 2122.54 325.692C2109.94 349.647 2088.47 365.243 2064.1 376.057C2055.68 379.795 2046.99 382.736 2038.72 386.845C2047.91 385.854 2057.34 386.196 2066.59 386.147C2065.99 389.564 2065.18 392.943 2064.18 396.265C2054.35 428.687 2031.2 439.927 2003.6 454.652C2006.29 461.226 2009.44 468.427 2007.85 475.657C2003.73 494.455 1972.64 515.563 1956.57 525.625C1958.39 528.574 1960.16 531.589 1961.52 534.774C1965.7 544.525 1966.49 554.224 1962.43 564.23C1955 582.495 1937.79 596.5 1920 604.044C1925.87 618.543 1928.98 635.439 1933.02 650.587C1943.69 690.017 1953.51 729.672 1962.47 769.522C1963.02 775.553 1965.18 782.049 1966.49 788.045C1969.13 799.581 1971.38 811.202 1973.22 822.886C1982.92 879.749 1988.81 937.19 1990.88 994.828C1991.41 1009.56 1993.01 1025.58 1991.57 1040.19C1991.44 1040.09 1991.31 1039.99 1991.19 1039.88C1989.18 1038.02 1988.87 1035.36 1988.3 1032.81C1980.53 997.833 1974.47 962.343 1967.21 927.234C1960.78 896.12 1953.04 865.19 1947.14 833.995C1945.21 823.803 1943.75 813.808 1942.98 803.46C1940.63 826.099 1934.01 849.393 1929.41 871.729C1923.8 899.009 1894.18 1052.66 1883.9 1064.42C1881.53 1049.5 1885.67 1031.32 1886.89 1016.24C1888.54 995.897 1889.79 974.973 1890.55 954.595C1893.06 887.606 1887.96 822.276 1877.24 756.145C1873.38 732.317 1869.41 708.744 1863.5 685.309C1850.34 681.521 1836.87 678.982 1823.77 674.855C1773.68 659.066 1730.74 631.433 1698.94 589.404C1686.6 573.093 1677.22 553.642 1663.83 538.403C1647.41 519.711 1612.02 520.504 1588.71 519.009C1603.34 510.128 1620.39 508.421 1635.31 500.581C1643.32 496.367 1649.61 488.573 1656.06 482.376C1673.26 465.856 1694.57 460.016 1717 454.161C1705.74 449.834 1694.74 442.583 1685.67 434.708C1666.55 418.128 1656.16 395.295 1651.63 370.756C1650.72 365.825 1649.44 360.433 1649.69 355.421C1650.03 348.466 1655.58 346.022 1653.44 338.169C1644.37 304.787 1631.11 287.541 1628.44 250.082C1632.25 252.363 1636.73 255.771 1641.09 256.681C1640.49 249.227 1612.44 201.274 1607.18 189.738C1600.53 175.14 1595.7 159.789 1593.66 143.857ZM1889.61 687.047C1886.07 678.544 1881.87 671.014 1876.54 663.471C1854.69 632.533 1776.82 547.372 1744.58 533.987C1725.19 525.936 1697.84 522.952 1676.75 521.947C1678.05 528.99 1682.42 536.509 1685.67 542.864C1699.48 569.887 1716.77 594.416 1742.16 611.947C1752.19 618.871 1763 625.198 1773.82 630.841C1798.96 643.96 1825.31 654.421 1850.72 666.899C1857.75 670.348 1884.37 686.913 1889.61 687.047ZM1700.95 506.182C1702.91 503.71 1704.73 500.557 1704.43 497.263C1704.23 495.139 1703.16 493.309 1701.47 492.015C1699 490.124 1695.76 490.075 1692.78 490.191C1690.89 492.593 1688.42 495.542 1688.78 498.804C1688.98 500.641 1690.04 502.144 1691.55 503.237C1694.07 505.071 1697.93 505.572 1700.95 506.182Z" fill="#0F263B"/>
</svg>
