<svg width="32" height="40" viewBox="0 0 32 40" fill="none" xmlns="http://www.w3.org/2000/svg">
<g clip-path="url(#clip0_43_52)">
<path d="M26.244 2.66162C25.9606 2.76488 25.6899 2.95135 25.437 3.11529C23.1842 4.57537 17.6088 9.99643 17.0481 12.6137C17.1448 12.8898 17.3214 13.1352 17.4785 13.38C17.7797 13.8497 18.0647 14.316 18.2251 14.8563C18.4436 15.5927 18.3509 16.0943 17.9936 16.7571C17.8268 16.0565 17.6679 15.3474 17.3316 14.7048C16.6898 13.4786 15.4108 12.4677 14.3407 11.6289C13.409 10.8987 12.3975 10.2401 11.4059 9.5951C9.91476 8.6105 8.39106 7.67623 6.83759 6.79383C5.17079 5.83735 3.49305 4.80714 1.65187 4.22653L1.65602 4.24237C1.94637 5.27477 2.57108 6.24062 3.30913 7.00979C3.54661 7.25731 3.84457 7.4724 4.04593 7.75022C4.26418 8.0513 4.26321 8.41702 4.55536 8.68145C5.11765 9.19053 5.93707 9.53362 6.59679 9.9089C6.25192 9.84529 5.91853 9.82813 5.56895 9.81793C6.06135 10.7607 6.90084 11.3745 7.85326 11.8001C8.18264 11.9472 8.52212 12.063 8.84568 12.2247C8.48627 12.1857 8.11745 12.1991 7.75611 12.1972C7.77964 12.3317 7.81105 12.4646 7.85022 12.5954C8.2344 13.8714 9.13935 14.3138 10.2185 14.8932C10.1132 15.152 9.99019 15.4354 10.0522 15.7199C10.2134 16.4598 11.4288 17.2905 12.0568 17.6865C11.9858 17.8025 11.9168 17.9212 11.8633 18.0465C11.6999 18.4303 11.6692 18.812 11.828 19.2058C12.1183 19.9247 12.7911 20.4758 13.4867 20.7727C13.2571 21.3433 13.1353 22.0083 12.9775 22.6045C12.5604 24.1563 12.1765 25.717 11.8261 27.2853C11.8047 27.5226 11.7202 27.7783 11.669 28.0143C11.5658 28.4683 11.4781 28.9256 11.4059 29.3855C11.027 31.6234 10.7965 33.884 10.7158 36.1524C10.6949 36.7324 10.6323 37.3625 10.6888 37.9378C10.6938 37.9337 10.6989 37.9299 10.7036 37.9255C10.7822 37.8522 10.7943 37.7475 10.8164 37.6471C11.1204 36.2707 11.3572 34.8739 11.6409 33.4922C11.8924 32.2677 12.1951 31.0504 12.4258 29.8227C12.5011 29.4216 12.5582 29.0282 12.5884 28.621C12.6801 29.5119 12.9389 30.4287 13.1186 31.3077C13.3379 32.3814 14.4957 38.4284 14.8979 38.8911C14.9906 38.3043 14.8285 37.5888 14.7808 36.9951C14.7164 36.1945 14.6675 35.371 14.6377 34.569C14.5397 31.9326 14.7391 29.3615 15.1582 26.7588C15.3092 25.8211 15.4643 24.8933 15.6953 23.971C16.2098 23.8219 16.7364 23.722 17.2483 23.5596C19.2064 22.9382 20.8853 21.8507 22.1282 20.1966C22.6105 19.5546 22.9775 18.7891 23.5009 18.1894C24.1428 17.4537 25.526 17.4849 26.4375 17.4261C25.8653 17.0766 25.1988 17.0094 24.6158 16.7009C24.3025 16.535 24.0567 16.2282 23.8044 15.9844C23.1323 15.3342 22.2991 15.1044 21.4224 14.874C21.8625 14.7036 22.2922 14.4183 22.6472 14.1083C23.3944 13.4558 23.8008 12.5572 23.9776 11.5914C24.0132 11.3974 24.0633 11.1852 24.0536 10.9879C24.0401 10.7142 23.8233 10.618 23.9068 10.3089C24.2615 8.99517 24.7797 8.31643 24.8843 6.84219C24.7352 6.93198 24.56 7.0661 24.3898 7.1019C24.4131 6.80857 25.5099 4.9213 25.7153 4.46731C25.9752 3.89279 26.1643 3.28863 26.244 2.66162ZM14.6747 24.0394C14.8129 23.7048 14.977 23.4084 15.1855 23.1115C16.0395 21.894 19.0838 18.5423 20.3441 18.0156C21.1021 17.6987 22.1713 17.5813 22.9955 17.5417C22.9449 17.8189 22.7741 18.1148 22.6471 18.3649C22.107 19.4284 21.4314 20.3938 20.4388 21.0838C20.0467 21.3562 19.6238 21.6053 19.2011 21.8273C18.2182 22.3437 17.1882 22.7554 16.1948 23.2464C15.9202 23.3822 14.8792 24.0341 14.6747 24.0394ZM22.0497 16.9213C21.973 16.824 21.902 16.6999 21.9137 16.5702C21.9213 16.4867 21.9632 16.4146 22.0293 16.3637C22.1258 16.2893 22.2526 16.2874 22.3691 16.2919C22.443 16.3865 22.5393 16.5025 22.5255 16.6309C22.5177 16.7032 22.476 16.7623 22.4172 16.8054C22.3185 16.8775 22.1676 16.8973 22.0497 16.9213Z" fill="#0F263B"/>
</g>
<defs>
<clipPath id="clip0_43_52">
<rect width="32" height="40" rx="2" fill="white"/>
</clipPath>
</defs>
</svg>
