<?xml version="1.0" encoding="utf-8" ?>
<svg xmlns="http://www.w3.org/2000/svg" xmlns:xlink="http://www.w3.org/1999/xlink" width="436" height="617">
	<path fill="#0F263B" transform="matrix(1.94643 0 0 1.94637 0.000244141 0)" d="M34.3645 40.7896C36.4118 41.5335 38.368 42.877 40.1956 44.0581C56.4737 54.5773 96.7601 93.6336 100.812 112.49C100.113 114.479 98.8369 116.247 97.7021 118.011C95.5252 121.395 93.4659 124.754 92.307 128.647C90.728 133.952 91.3982 137.566 93.9796 142.341C95.1854 137.294 96.3332 132.185 98.7636 127.555C103.401 118.721 112.643 111.438 120.375 105.395C127.107 100.134 134.416 95.389 141.581 90.7422C152.356 83.6486 163.366 76.9176 174.591 70.5603C186.635 63.6693 198.758 56.2471 212.062 52.0641L212.032 52.1782C209.934 59.6162 205.42 66.5747 200.087 72.1162C198.371 73.8995 196.218 75.4491 194.763 77.4507C193.186 79.6198 193.193 82.2547 191.082 84.1598C187.019 87.8275 181.098 90.2993 176.331 93.003C178.823 92.5447 181.232 92.4211 183.758 92.3476C180.2 99.1398 174.134 103.562 167.252 106.628C164.872 107.688 162.419 108.522 160.081 109.687C162.678 109.406 165.343 109.503 167.954 109.489C167.784 110.458 167.557 111.416 167.274 112.358C164.498 121.551 157.959 124.738 150.161 128.913C150.922 130.777 151.811 132.819 151.363 134.869C150.198 140.199 141.416 146.184 136.878 149.037C137.391 149.873 137.89 150.728 138.276 151.631C139.457 154.396 139.679 157.146 138.531 159.983C136.434 165.162 131.572 169.133 126.546 171.272C128.205 175.383 129.085 180.174 130.225 184.469C133.239 195.649 136.013 206.893 138.545 218.192C138.7 219.902 139.31 221.744 139.68 223.444C140.426 226.715 141.06 230.01 141.581 233.323C144.319 249.446 145.985 265.733 146.568 282.076C146.719 286.254 147.171 290.794 146.763 294.939C146.727 294.909 146.69 294.882 146.656 294.85C146.088 294.322 146.001 293.568 145.841 292.844C143.644 282.928 141.933 272.865 139.883 262.91C138.066 254.088 135.879 245.318 134.212 236.473C133.668 233.583 133.255 230.749 133.037 227.815C132.374 234.234 130.504 240.839 129.206 247.172C127.621 254.907 119.255 298.473 116.349 301.807C115.679 297.579 116.85 292.424 117.195 288.147C117.66 282.379 118.014 276.446 118.229 270.668C118.937 251.674 117.496 233.15 114.468 214.399C113.377 207.643 112.256 200.959 110.587 194.314C106.869 193.24 103.064 192.52 99.3655 191.35C85.2164 186.873 73.0854 179.038 64.1042 167.121C60.6189 162.496 57.9673 156.981 54.1854 152.66C49.5469 147.36 39.5521 147.585 32.966 147.161C37.1004 144.643 41.9166 144.159 46.1293 141.936C48.3933 140.741 50.1689 138.531 51.992 136.774C56.8489 132.09 62.8691 130.434 69.2041 128.774C66.0241 127.547 62.9188 125.491 60.3542 123.258C54.9546 118.557 52.0185 112.083 50.7406 105.125C50.4837 103.727 50.1213 102.198 50.1915 100.777C50.2889 98.805 51.8554 98.1118 51.2525 95.8851C48.6897 86.42 44.9448 81.53 44.1889 70.9087C45.2668 71.5556 46.5328 72.5219 47.7621 72.7798C47.5938 70.6665 39.669 57.0696 38.1848 53.7988C36.3066 49.6596 34.9402 45.3069 34.3645 40.7896ZM117.962 194.807C116.963 192.396 115.777 190.261 114.271 188.122C108.1 179.35 86.1026 155.203 76.996 151.408C71.5183 149.125 63.7928 148.279 57.8373 147.994C58.203 149.991 59.437 152.123 60.3546 153.925C64.2574 161.587 69.1393 168.542 76.3113 173.513C79.1446 175.476 82.2004 177.27 85.2545 178.87C92.3569 182.59 99.7998 185.556 106.978 189.094C108.962 190.072 116.484 194.769 117.962 194.807ZM64.6711 143.524C65.2255 142.823 65.7388 141.929 65.654 140.995C65.5993 140.393 65.2961 139.874 64.8185 139.507C64.1212 138.971 63.2055 138.957 62.3638 138.99C61.8294 139.671 61.1334 140.507 61.2333 141.432C61.2896 141.953 61.5909 142.379 62.0157 142.689C62.7293 143.209 63.8193 143.351 64.6711 143.524Z"/>
</svg>
